<svg version="1.1" viewBox="0.0 0.0 997.4409448818898 1152.0" fill="none" stroke="none" stroke-linecap="square" stroke-miterlimit="10" xmlns:xlink="http://www.w3.org/1999/xlink" xmlns="http://www.w3.org/2000/svg"><clipPath id="gcae5747a0d_0_0.0"><path d="m0 0l997.4409 0l0 1152.0l-997.4409 0l0 -1152.0z" clip-rule="nonzero"/></clipPath><g clip-path="url(#gcae5747a0d_0_0.0)"><path fill="#000000" fill-opacity="0.0" d="m0 0l997.4409 0l0 1152.0l-997.4409 0z" fill-rule="evenodd"/><path fill="#ffffff" d="m498.71567 151.95012l363.76358 209.22237l0 420.92535l-363.76358 209.22235l-363.7636 -209.22235l0 -420.92535z" fill-rule="evenodd"/><path stroke="#333333" stroke-width="1.0" stroke-linejoin="round" stroke-linecap="butt" d="m498.71567 151.95012l363.76358 209.22237l0 420.92535l-363.76358 209.22235l-363.7636 -209.22235l0 -420.92535z" fill-rule="evenodd"/><path fill="#333333" d="m498.73227 106.745964l402.70847 231.62192l0 466.48843l-402.70847 231.62195l-402.70847 -231.62195l0 -466.48843z" fill-rule="evenodd"/><path fill="#91573a" d="m134.96068 358.55322l0 96.85202l77.48161 19.370392l77.4816 -38.740814l-38.7408 -142.04959l-116.22241 64.56799" fill-rule="evenodd"/><path stroke="#333333" stroke-width="4.0" stroke-linejoin="round" stroke-linecap="butt" d="m134.96068 358.55322l0 96.85202l77.48161 19.370392l77.4816 -38.740814l-38.7408 -142.04959l-116.22241 64.56799" fill-rule="evenodd"/><path fill="#91573a" d="m251.17795 293.9888l38.740814 142.04959l90.3952 51.65439l64.56799 -38.740784l-77.4816 -71.02481l0 -96.85199l25.827179 -71.02481z" fill-rule="evenodd"/><path stroke="#333333" stroke-width="4.0" stroke-linejoin="round" stroke-linecap="butt" d="m251.17795 293.9888l38.740814 142.04959l90.3952 51.65439l64.56799 -38.740784l-77.4816 -71.02481l0 -96.85199l25.827179 -71.02481z" fill-rule="evenodd"/><path fill="#91573a" d="m367.39523 326.27524l0 -45.1976l25.827179 -71.02478l103.30881 -58.111206l51.65439 25.827194l0 109.76561z" fill-rule="evenodd"/><path stroke="#333333" stroke-width="4.0" stroke-linejoin="round" stroke-linecap="butt" d="m367.39523 326.27524l0 -45.1976l25.827179 -71.02478l103.30881 -58.111206l51.65439 25.827194l0 109.76561z" fill-rule="evenodd"/><path fill="#91573a" d="m367.39523 326.2695l0 51.65442l77.4816 71.02478l51.65439 -58.111206l90.39523 12.913605l-38.740845 -116.22238l-180.79037 38.740784" fill-rule="evenodd"/><path stroke="#333333" stroke-width="4.0" stroke-linejoin="round" stroke-linecap="butt" d="m367.39523 326.2695l0 51.65442l77.4816 71.02478l51.65439 -58.111206l90.39523 12.913605l-38.740845 -116.22238l-180.79037 38.740784" fill-rule="evenodd"/><path fill="#91573a" d="m548.1776 177.76776l142.04962 83.938385l-103.30878 142.04962l-38.740845 -116.22241z" fill-rule="evenodd"/><path stroke="#333333" stroke-width="4.0" stroke-linejoin="round" stroke-linecap="butt" d="m548.1776 177.76776l142.04962 83.938385l-103.30878 142.04962l-38.740845 -116.22241z" fill-rule="evenodd"/><path fill="#91573a" d="m690.22327 261.7026l-51.65442 71.02481l148.50641 71.02478l-12.913574 90.3952l90.39514 51.65442l0 -187.24722z" fill-rule="evenodd"/><path stroke="#333333" stroke-width="4.0" stroke-linejoin="round" stroke-linecap="butt" d="m690.22327 261.7026l-51.65442 71.02481l148.50641 71.02478l-12.913574 90.3952l90.39514 51.65442l0 -187.24722z" fill-rule="evenodd"/><path fill="#374869" d="m638.5774 332.7244l80.71002 38.740814l-125.90759 167.87677l-148.50641 -90.39517l51.65439 -58.111206l90.39517 12.913605z" fill-rule="evenodd"/><path stroke="#333333" stroke-width="4.0" stroke-linejoin="round" stroke-linecap="butt" d="m638.5774 332.7244l80.71002 38.740814l-125.90759 167.87677l-148.50641 -90.39517l51.65439 -58.111206l90.39517 12.913605z" fill-rule="evenodd"/><path fill="#374869" d="m719.6872 371.46356l67.391785 32.283997l-12.913635 90.3952l-77.48157 135.59277l-142.04962 -38.740784l164.64838 -219.53119" fill-rule="evenodd"/><path stroke="#333333" stroke-width="4.0" stroke-linejoin="round" stroke-linecap="butt" d="m719.6872 371.46356l67.391785 32.283997l-12.913635 90.3952l-77.48157 135.59277l-142.04962 -38.740784l164.64838 -219.53119" fill-rule="evenodd"/><path fill="#436d55" d="m774.15906 494.13757l90.3952 51.654358l0 238.90161l-90.3952 -38.740784l-77.48157 -116.22241z" fill-rule="evenodd"/><path stroke="#333333" stroke-width="4.0" stroke-linejoin="round" stroke-linecap="butt" d="m774.15906 494.13757l90.3952 51.654358l0 238.90161l-90.3952 -38.740784l-77.48157 -116.22241z" fill-rule="evenodd"/><path fill="#436d55" d="m862.94293 784.6841l-172.71942 96.85199l-58.111145 -83.938416l0 -77.48157l123.6875 -1.8154907l18.36206 27.6427z" fill-rule="evenodd"/><path stroke="#333333" stroke-width="4.0" stroke-linejoin="round" stroke-linecap="butt" d="m862.94293 784.6841l-172.71942 96.85199l-58.111145 -83.938416l0 -77.48157l123.6875 -1.8154907l18.36206 27.6427z" fill-rule="evenodd"/><path fill="#374869" d="m134.96068 455.3984l77.48161 19.370392l0 96.85199l193.70398 19.370422l0 90.3952l-193.70398 -58.111206l-77.48161 45.19757z" fill-rule="evenodd"/><path stroke="#333333" stroke-width="4.0" stroke-linejoin="round" stroke-linecap="butt" d="m134.96068 455.3984l77.48161 19.370392l0 96.85199l193.70398 19.370422l0 90.3952l-193.70398 -58.111206l-77.48161 45.19757z" fill-rule="evenodd"/><path fill="#374869" d="m289.92047 436.0288l-77.48161 38.740814l0 96.85202l193.704 19.370361l38.740814 -142.04959l-64.56799 38.740814z" fill-rule="evenodd"/><path stroke="#333333" stroke-width="4.0" stroke-linejoin="round" stroke-linecap="butt" d="m289.92047 436.0288l-77.48161 38.740814l0 96.85202l193.704 19.370361l38.740814 -142.04959l-64.56799 38.740814z" fill-rule="evenodd"/><path fill="#374869" d="m444.87512 448.94186l148.50641 90.39523l-38.740845 51.654358l-58.111176 109.765625l-90.3952 -19.370422l0 -90.3952z" fill-rule="evenodd"/><path stroke="#333333" stroke-width="4.0" stroke-linejoin="round" stroke-linecap="butt" d="m444.87512 448.94186l148.50641 90.39523l-38.740845 51.654358l-58.111176 109.765625l-90.3952 -19.370422l0 -90.3952z" fill-rule="evenodd"/><path fill="#374869" d="m554.6367 590.9855l142.04962 38.740784l59.322876 88.781006l-123.89087 1.6141968l-135.59283 -19.370422z" fill-rule="evenodd"/><path stroke="#333333" stroke-width="4.0" stroke-linejoin="round" stroke-linecap="butt" d="m554.6367 590.9855l142.04962 38.740784l59.322876 88.781006l-123.89087 1.6141968l-135.59283 -19.370422z" fill-rule="evenodd"/><path fill="#374869" d="m296.38068 649.0953l-83.938385 -25.82721l-77.48161 45.19763l0 116.22241l38.7408 19.370361l38.740814 -38.740784l19.370392 -77.48157z" fill-rule="evenodd"/><path stroke="#333333" stroke-width="4.0" stroke-linejoin="round" stroke-linecap="butt" d="m296.38068 649.0953l-83.938385 -25.82721l-77.48161 45.19763l0 116.22241l38.7408 19.370361l38.740814 -38.740784l19.370392 -77.48157z" fill-rule="evenodd"/><path fill="#436d55" d="m231.80841 687.835l64.56799 -38.740845l109.765594 32.283997l58.111206 12.913635l-6.456787 58.111206z" fill-rule="evenodd"/><path stroke="#333333" stroke-width="4.0" stroke-linejoin="round" stroke-linecap="butt" d="m231.80841 687.835l64.56799 -38.740845l109.765594 32.283997l58.111206 12.913635l-6.456787 58.111206z" fill-rule="evenodd"/><path fill="#374869" d="m464.24603 694.2899l32.283997 6.456787l75.0603 10.896912l-29.862732 111.78229l-64.56799 58.111206l-82.54874 -65.24805l63.178345 -63.888z" fill-rule="evenodd"/><path stroke="#333333" stroke-width="4.0" stroke-linejoin="round" stroke-linecap="butt" d="m464.24603 694.2899l32.283997 6.456787l75.0603 10.896912l-29.862732 111.78229l-64.56799 58.111206l-82.54874 -65.24805l63.178345 -63.888z" fill-rule="evenodd"/><path fill="#436d55" d="m571.18256 712.04535l60.934998 8.070984l0 77.48163l58.111206 83.938354l-122.6792 71.02484l-53.67108 -102.904236l27.843872 -26.231812z" fill-rule="evenodd"/><path stroke="#333333" stroke-width="4.0" stroke-linejoin="round" stroke-linecap="butt" d="m571.18256 712.04535l60.934998 8.070984l0 77.48163l58.111206 83.938354l-122.6792 71.02484l-53.67108 -102.904236l27.843872 -26.231812z" fill-rule="evenodd"/><path fill="#436d55" d="m513.079 848.44073l54.47821 104.115906l-71.02484 38.740784l-154.9632 -90.3952l55.1709 -82.48944l80.421906 63.11908z" fill-rule="evenodd"/><path stroke="#333333" stroke-width="4.0" stroke-linejoin="round" stroke-linecap="butt" d="m513.079 848.44073l54.47821 104.115906l-71.02484 38.740784l-154.9632 -90.3952l55.1709 -82.48944l80.421906 63.11908z" fill-rule="evenodd"/><path fill="#436d55" d="m231.81097 687.8334l225.988 64.56799l-51.65442 51.65442l-64.56799 96.85199l-167.8768 -96.85199l38.7408 -38.740845z" fill-rule="evenodd"/><path stroke="#333333" stroke-width="4.0" stroke-linejoin="round" stroke-linecap="butt" d="m231.81097 687.8334l225.988 64.56799l-51.65442 51.65442l-64.56799 96.85199l-167.8768 -96.85199l38.7408 -38.740845z" fill-rule="evenodd"/><path fill="#ffffff" d="m270.4053 478.23587l-58.180298 19.540222l4.5776367E-5 -39.080475l58.180252 19.540253zm39.36505 -24.81836l-154.51892 -57.759735l-6.1035156E-5 44.845215l22.246506 7.5989685l-7.6293945E-5 60.4924l-22.246506 7.598999l-6.1035156E-5 44.845215l154.51906 -57.94693z" fill-rule="evenodd"/><path fill="#333333" d="m175.48868 1006.60565l69.85826 -120.91339l53.637802 30.992126l-69.85828 120.91339z" fill-rule="evenodd"/><path fill="#333333" d="m821.95355 1006.6048l-69.85828 -120.91339l-53.637756 30.992126l69.85828 120.91339z" fill-rule="evenodd"/><path fill="#333333" d="m148.27357 283.2874l0 0c-18.83429 -31.820084 -15.700226 -73.26637 8.215439 -108.64464c23.915665 -35.378265 64.95683 -59.28009 107.5827 -62.6547c42.625885 -3.374611 80.32007 14.293869 98.80914 46.31504z" fill-rule="evenodd"/><path fill="#333333" d="m298.58002 247.6853l-45.23175 -78.39l-41.239975 23.812012l45.231766 78.39z" fill-rule="evenodd"/><path fill="#333333" d="m634.09033 159.09349l0 0c18.142334 -32.219635 55.60431 -50.22573 98.20038 -47.200027c42.59607 3.0256958 83.81445 26.620651 108.04718 61.85028c24.232727 35.229645 27.775269 76.70828 9.286255 108.72943z" fill-rule="evenodd"/><path fill="#333333" d="m740.0673 271.46976l45.277832 -78.3634l-41.23999 -23.812012l-45.277832 78.36339z" fill-rule="evenodd"/><path fill="#ffffff" d="m282.151 714.16327l-11.178528 60.347534l-34.16086 -18.981873l45.339386 -41.36566zm-2.573944 -46.464355l-125.54074 107.01349l39.199905 21.781982l17.44783 -15.755249l52.87735 29.382019l-4.1630554 23.137024l39.19989 21.781982l24.39975 -163.2138z" fill-rule="evenodd"/><path fill="#ffffff" d="m505.0981 787.549l77.25961 133.81805l34.23352 -19.764832l-50.262085 -87.05682l83.75 67.72247l15.139221 -8.740723l-16.61206 -106.4848l50.262085 87.05682l34.26593 -19.78357l-77.25958 -133.81805l-47.622192 27.494873l14.0494995 88.71991l-69.614136 -56.639465z" fill-rule="evenodd"/><path fill="#ffffff" d="m308.83893 593.7944l-154.519 0l-1.0681152E-4 101.182495l34.764877 0l7.6293945E-5 -61.65277l119.75409 0z" fill-rule="evenodd"/><path fill="#ffffff" d="m435.73227 794.09937c4.559143 2.5333862 7.778839 5.961609 9.659058 10.284729c1.9142456 4.3132324 1.5954895 8.766052 -0.95632935 13.358459c-2.6250305 4.724182 -6.2804565 7.423584 -10.966278 8.098206c-4.6517944 0.6647339 -9.257263 -0.26953125 -13.816406 -2.8029175l-27.354858 -15.200073l16.079956 -28.938477zm-45.022583 -64.78888l-75.05203 135.06824l34.553528 19.200073l25.20047 -45.352295l17.702148 9.836426l-2.6883545 57.86145l39.625275 22.01831l0.2081604 -64.8042c3.6740723 0.6324463 7.712677 0.7628784 12.115906 0.39135742c4.4372253 -0.3814087 8.847687 -1.5109863 13.231354 -3.388733c4.395874 -1.8997192 8.647614 -4.67041 12.7552185 -8.312012c4.1293945 -3.6294556 7.842407 -8.410522 11.138977 -14.343262c3.4552917 -6.218384 5.6607666 -12.62793 6.616394 -19.22876c0.9678345 -6.622864 0.5899353 -13.058777 -1.133667 -19.307922c-1.6895752 -6.258911 -4.793335 -12.18219 -9.311279 -17.769653c-4.5057373 -5.609497 -10.44519 -10.4627075 -17.818329 -14.559692z" fill-rule="evenodd"/></g></svg>