<svg version="1.1" viewBox="0.0 0.0 997.4409448818898 1152.0" fill="none" stroke="none" stroke-linecap="square" stroke-miterlimit="10" xmlns:xlink="http://www.w3.org/1999/xlink" xmlns="http://www.w3.org/2000/svg"><clipPath id="gcb93833d53_0_160.0"><path d="m0 0l997.4409 0l0 1152.0l-997.4409 0l0 -1152.0z" clip-rule="nonzero"/></clipPath><g clip-path="url(#gcb93833d53_0_160.0)"><path fill="#000000" fill-opacity="0.0" d="m0 0l997.4409 0l0 1152.0l-997.4409 0z" fill-rule="evenodd"/><path fill="#ffffff" d="m498.7139 56.010498l450.7242 259.23865l0 521.5227l-450.7242 259.23865l-450.72418 -259.23865l0 -521.5227z" fill-rule="evenodd"/><path stroke="#333333" stroke-width="1.0" stroke-linejoin="round" stroke-linecap="butt" d="m498.7139 56.010498l450.7242 259.23865l0 521.5227l-450.7242 259.23865l-450.72418 -259.23865l0 -521.5227z" fill-rule="evenodd"/><path fill="#333333" d="m498.72177 0l498.9919 287.0003l0 577.9994l-498.9919 287.0003l-498.99188 -287.0003l0 -577.9994z" fill-rule="evenodd"/><path fill="#91573a" d="m48.0 312.0l0 120.0l96.0 24.0l96.0 -48.0l-48.0 -176.0l-144.0 80.0" fill-rule="evenodd"/><path stroke="#333333" stroke-width="4.0" stroke-linejoin="round" stroke-linecap="butt" d="m48.0 312.0l0 120.0l96.0 24.0l96.0 -48.0l-48.0 -176.0l-144.0 80.0" fill-rule="evenodd"/><path fill="#91573a" d="m192.0 232.0l48.0 176.0l112.0 64.0l80.0 -48.0l-96.0 -88.0l0 -120.0l32.0 -88.0z" fill-rule="evenodd"/><path stroke="#333333" stroke-width="4.0" stroke-linejoin="round" stroke-linecap="butt" d="m192.0 232.0l48.0 176.0l112.0 64.0l80.0 -48.0l-96.0 -88.0l0 -120.0l32.0 -88.0z" fill-rule="evenodd"/><path fill="#91573a" d="m336.0 272.0l0 -56.0l32.0 -88.0l128.0 -72.0l64.0 32.0l0 136.0z" fill-rule="evenodd"/><path stroke="#333333" stroke-width="4.0" stroke-linejoin="round" stroke-linecap="butt" d="m336.0 272.0l0 -56.0l32.0 -88.0l128.0 -72.0l64.0 32.0l0 136.0z" fill-rule="evenodd"/><path fill="#91573a" d="m336.0 272.0l0 64.0l96.0 88.0l64.0 -72.0l112.0 16.0l-48.0 -144.0l-224.0 48.0" fill-rule="evenodd"/><path stroke="#333333" stroke-width="4.0" stroke-linejoin="round" stroke-linecap="butt" d="m336.0 272.0l0 64.0l96.0 88.0l64.0 -72.0l112.0 16.0l-48.0 -144.0l-224.0 48.0" fill-rule="evenodd"/><path fill="#91573a" d="m560.0 88.0l176.0 104.0l-128.0 176.0l-48.0 -144.0z" fill-rule="evenodd"/><path stroke="#333333" stroke-width="4.0" stroke-linejoin="round" stroke-linecap="butt" d="m560.0 88.0l176.0 104.0l-128.0 176.0l-48.0 -144.0z" fill-rule="evenodd"/><path fill="#91573a" d="m736.0 192.0l-64.0 88.0l184.0 88.0l-16.0 112.0l112.0 64.0l0 -232.0z" fill-rule="evenodd"/><path stroke="#333333" stroke-width="4.0" stroke-linejoin="round" stroke-linecap="butt" d="m736.0 192.0l-64.0 88.0l184.0 88.0l-16.0 112.0l112.0 64.0l0 -232.0z" fill-rule="evenodd"/><path fill="#374869" d="m672.0 280.0l100.0 48.0l-156.0 208.0l-184.0 -112.0l64.0 -72.0l112.0 16.0z" fill-rule="evenodd"/><path stroke="#333333" stroke-width="4.0" stroke-linejoin="round" stroke-linecap="butt" d="m672.0 280.0l100.0 48.0l-156.0 208.0l-184.0 -112.0l64.0 -72.0l112.0 16.0z" fill-rule="evenodd"/><path fill="#374869" d="m772.50134 328.0l83.49866 40.0l-16.0 112.0l-96.0 168.0l-176.0 -48.0l204.0 -272.0" fill-rule="evenodd"/><path stroke="#333333" stroke-width="4.0" stroke-linejoin="round" stroke-linecap="butt" d="m772.50134 328.0l83.49866 40.0l-16.0 112.0l-96.0 168.0l-176.0 -48.0l204.0 -272.0" fill-rule="evenodd"/><path fill="#436d55" d="m840.0 480.0l112.0 64.0l0 296.0l-112.0 -48.0l-96.0 -144.0z" fill-rule="evenodd"/><path stroke="#333333" stroke-width="4.0" stroke-linejoin="round" stroke-linecap="butt" d="m840.0 480.0l112.0 64.0l0 296.0l-112.0 -48.0l-96.0 -144.0z" fill-rule="evenodd"/><path fill="#436d55" d="m950.0 840.0l-214.0 120.0l-72.0 -104.0l0 -96.0l153.24933 -2.2493286l22.750671 34.24933z" fill-rule="evenodd"/><path stroke="#333333" stroke-width="4.0" stroke-linejoin="round" stroke-linecap="butt" d="m950.0 840.0l-214.0 120.0l-72.0 -104.0l0 -96.0l153.24933 -2.2493286l22.750671 34.24933z" fill-rule="evenodd"/><path fill="#374869" d="m48.0 432.0l96.0 24.0l0 120.0l240.0 24.0l0 112.0l-240.0 -72.0l-96.0 56.0z" fill-rule="evenodd"/><path stroke="#333333" stroke-width="4.0" stroke-linejoin="round" stroke-linecap="butt" d="m48.0 432.0l96.0 24.0l0 120.0l240.0 24.0l0 112.0l-240.0 -72.0l-96.0 56.0z" fill-rule="evenodd"/><path fill="#374869" d="m240.0 408.0l-96.0 48.0l0 120.0l240.0 24.0l48.0 -176.0l-80.0 48.0z" fill-rule="evenodd"/><path stroke="#333333" stroke-width="4.0" stroke-linejoin="round" stroke-linecap="butt" d="m240.0 408.0l-96.0 48.0l0 120.0l240.0 24.0l48.0 -176.0l-80.0 48.0z" fill-rule="evenodd"/><path fill="#374869" d="m432.0 424.0l184.0 112.0l-48.0 64.0l-72.0 136.0l-112.0 -24.0l0 -112.0z" fill-rule="evenodd"/><path stroke="#333333" stroke-width="4.0" stroke-linejoin="round" stroke-linecap="butt" d="m432.0 424.0l184.0 112.0l-48.0 64.0l-72.0 136.0l-112.0 -24.0l0 -112.0z" fill-rule="evenodd"/><path fill="#374869" d="m568.0 600.0l176.0 48.0l73.50134 110.0l-153.50134 2.0l-168.0 -24.0z" fill-rule="evenodd"/><path stroke="#333333" stroke-width="4.0" stroke-linejoin="round" stroke-linecap="butt" d="m568.0 600.0l176.0 48.0l73.50134 110.0l-153.50134 2.0l-168.0 -24.0z" fill-rule="evenodd"/><path fill="#374869" d="m248.0 672.0l-104.0 -32.0l-96.0 56.0l0 144.0l48.0 24.0l48.0 -48.0l24.0 -96.0z" fill-rule="evenodd"/><path stroke="#333333" stroke-width="4.0" stroke-linejoin="round" stroke-linecap="butt" d="m248.0 672.0l-104.0 -32.0l-96.0 56.0l0 144.0l48.0 24.0l48.0 -48.0l24.0 -96.0z" fill-rule="evenodd"/><path fill="#436d55" d="m168.0 720.0l80.0 -48.0l136.0 40.0l72.0 16.0l-8.0 72.0z" fill-rule="evenodd"/><path stroke="#333333" stroke-width="4.0" stroke-linejoin="round" stroke-linecap="butt" d="m168.0 720.0l80.0 -48.0l136.0 40.0l72.0 16.0l-8.0 72.0z" fill-rule="evenodd"/><path fill="#374869" d="m456.0 728.0l40.0 8.0l93.0 13.501343l-37.0 138.49866l-80.0 72.0l-102.27823 -80.84253l78.27823 -79.15747z" fill-rule="evenodd"/><path stroke="#333333" stroke-width="4.0" stroke-linejoin="round" stroke-linecap="butt" d="m456.0 728.0l40.0 8.0l93.0 13.501343l-37.0 138.49866l-80.0 72.0l-102.27823 -80.84253l78.27823 -79.15747z" fill-rule="evenodd"/><path fill="#436d55" d="m588.50134 750.0l75.49866 10.0l0 96.0l72.0 104.0l-152.0 88.0l-66.49866 -127.49866l34.498657 -32.501343z" fill-rule="evenodd"/><path stroke="#333333" stroke-width="4.0" stroke-linejoin="round" stroke-linecap="butt" d="m588.50134 750.0l75.49866 10.0l0 96.0l72.0 104.0l-152.0 88.0l-66.49866 -127.49866l34.498657 -32.501343z" fill-rule="evenodd"/><path fill="#436d55" d="m516.50134 919.0l67.49866 129.0l-88.0 48.0l-192.0 -112.0l68.356964 -102.20471l99.643036 78.20471z" fill-rule="evenodd"/><path stroke="#333333" stroke-width="4.0" stroke-linejoin="round" stroke-linecap="butt" d="m516.50134 919.0l67.49866 129.0l-88.0 48.0l-192.0 -112.0l68.356964 -102.20471l99.643036 78.20471z" fill-rule="evenodd"/><path fill="#436d55" d="m168.0 720.0l280.0 80.0l-64.0 64.0l-80.0 120.0l-208.0 -120.0l48.0 -48.0z" fill-rule="evenodd"/><path stroke="#333333" stroke-width="4.0" stroke-linejoin="round" stroke-linecap="butt" d="m168.0 720.0l280.0 80.0l-64.0 64.0l-80.0 120.0l-208.0 -120.0l48.0 -48.0z" fill-rule="evenodd"/><path fill="#ffffff" d="m215.82388 460.29694l-72.088745 24.211456l4.5776367E-5 -48.422913l72.0887 24.211456zm48.775543 -30.751343l-191.45786 -71.5676l-5.340576E-5 55.565765l27.564705 9.415558l-6.866455E-5 74.95349l-27.56472 9.415588l-5.340576E-5 55.565765l191.458 -71.79953z" fill-rule="evenodd"/><path fill="#333333" d="m98.21655 1114.9768l86.519684 -149.82672l66.48819 38.42517l-86.519684 149.82672z" fill-rule="evenodd"/><path fill="#333333" d="m899.22437 1114.9757l-86.51965 -149.82672l-66.48822 38.42517l86.519714 149.82672z" fill-rule="evenodd"/><path fill="#333333" d="m64.51223 218.7302l0 0c-23.335613 -39.424057 -19.453117 -90.774994 10.177322 -134.60806c29.630447 -43.833076 80.4791 -73.44734 133.29144 -77.628944c52.812347 -4.181605 99.51468 17.70871 122.42258 57.381878z" fill-rule="evenodd"/><path fill="#333333" d="m250.73763 174.61813l-56.041992 -97.12263l-51.09497 29.503006l56.041992 97.12263z" fill-rule="evenodd"/><path fill="#333333" d="m666.4734 64.86172l0 0c22.478333 -39.919075 68.892944 -62.22769 121.668396 -58.47838c52.77539 3.7493114 103.84357 32.983376 133.86688 76.63231c30.023315 43.64894 34.411926 95.039955 11.504028 134.7131z" fill-rule="evenodd"/><path fill="#333333" d="m797.7747 204.09438l56.09912 -97.089645l-51.09497 -29.503006l-56.09912 97.089645z" fill-rule="evenodd"/><path fill="#ffffff" d="m230.37746 752.62427l-13.850906 74.773926l-42.327316 -23.519714l56.178223 -51.25421zm-3.1893005 -57.57196l-155.55241 132.59558l48.571 26.989014l21.618896 -19.521545l65.51814 36.405945l-5.158264 28.668152l48.571 26.989014l30.232742 -202.2309z" fill-rule="evenodd"/><path fill="#ffffff" d="m506.62195 843.55334l95.729126 165.8081l42.41736 -24.489807l-62.27765 -107.86835l103.77112 83.91199l18.758484 -10.830261l-20.583374 -131.94073l62.27765 107.86835l42.45752 -24.51294l-95.729126 -165.80817l-59.006714 34.06775l17.408142 109.929016l-86.25598 -70.179504z" fill-rule="evenodd"/><path fill="#ffffff" d="m263.4453 603.4804l-191.45792 0l-1.1444092E-4 125.37085l43.0757 0l6.866455E-5 -76.3913l148.38223 0z" fill-rule="evenodd"/><path fill="#ffffff" d="m420.6736 851.66956c5.649048 3.138977 9.638428 7.38678 11.96814 12.743347c2.3718872 5.3443604 1.9768982 10.861633 -1.1849365 16.551819c-3.252594 5.8535767 -7.781891 9.198303 -13.587891 10.03418c-5.763855 0.82366943 -11.470276 -0.33398438 -17.119324 -3.4729614l-33.894287 -18.83374l19.924011 -35.856384zm-55.785614 -80.27704l-92.99396 167.35693l42.813843 23.79004l31.224915 -56.19403l21.93399 12.187866l-3.3310547 71.6936l49.098083 27.281921l0.25793457 -80.29602c4.552368 0.7836304 9.5564575 0.94525146 15.012299 0.48492432c5.497986 -0.47253418 10.962799 -1.8721313 16.39444 -4.1987915c5.4467773 -2.3538818 10.714935 -5.786865 15.804474 -10.299011c5.116577 -4.4971313 9.717224 -10.421143 13.801849 -17.772095c4.2813416 -7.704895 7.014038 -15.64679 8.19812 -23.825562c1.1992188 -8.205994 0.73098755 -16.180542 -1.4046631 -23.923523c-2.0935059 -7.755188 -5.9392395 -15.094421 -11.537231 -22.01764c-5.582855 -6.9504395 -12.9422 -12.963867 -22.077972 -18.040283z" fill-rule="evenodd"/></g></svg>