<svg version="1.1" viewBox="0.0 0.0 997.4409448818898 1152.0" fill="none" stroke="none" stroke-linecap="square" stroke-miterlimit="10" xmlns:xlink="http://www.w3.org/1999/xlink" xmlns="http://www.w3.org/2000/svg"><clipPath id="g111e9a16aab_0_0.0"><path d="m0 0l997.4409 0l0 1152.0l-997.4409 0l0 -1152.0z" clip-rule="nonzero"/></clipPath><g clip-path="url(#g111e9a16aab_0_0.0)"><path fill="#000000" fill-opacity="0.0" d="m0 0l997.4409 0l0 1152.0l-997.4409 0z" fill-rule="evenodd"/><path fill="#ffffff" d="m498.7139 56.010498l450.7242 259.23865l0 521.5227l-450.7242 259.23865l-450.72418 -259.23865l0 -521.5227z" fill-rule="evenodd"/><path stroke="#333333" stroke-width="1.0" stroke-linejoin="round" stroke-linecap="butt" d="m498.7139 56.010498l450.7242 259.23865l0 521.5227l-450.7242 259.23865l-450.72418 -259.23865l0 -521.5227z" fill-rule="evenodd"/><path fill="#333333" d="m498.72177 0l498.9919 287.0003l0 577.9994l-498.9919 287.0003l-498.99188 -287.0003l0 -577.9994z" fill-rule="evenodd"/><path fill="#a61c00" d="m48.0 312.0l0 120.0l96.0 24.0l96.0 -48.0l-48.0 -176.0l-144.0 80.0" fill-rule="evenodd"/><path stroke="#a61c00" stroke-width="4.0" stroke-linejoin="round" stroke-linecap="butt" d="m48.0 312.0l0 120.0l96.0 24.0l96.0 -48.0l-48.0 -176.0l-144.0 80.0" fill-rule="evenodd"/><path fill="#a61c00" d="m192.0 232.0l48.0 176.0l112.54593 52.013123l79.45407 -36.013123l-96.0 -88.0l0 -120.0l32.0 -88.0z" fill-rule="evenodd"/><path stroke="#a61c00" stroke-width="4.0" stroke-linejoin="round" stroke-linecap="butt" d="m192.0 232.0l48.0 176.0l112.54593 52.013123l79.45407 -36.013123l-96.0 -88.0l0 -120.0l32.0 -88.0z" fill-rule="evenodd"/><path fill="#a61c00" d="m336.0 272.0l0 -56.0l32.0 -88.0l128.0 -72.0l64.0 32.0l0 136.0z" fill-rule="evenodd"/><path stroke="#a61c00" stroke-width="4.0" stroke-linejoin="round" stroke-linecap="butt" d="m336.0 272.0l0 -56.0l32.0 -88.0l128.0 -72.0l64.0 32.0l0 136.0z" fill-rule="evenodd"/><path fill="#a61c00" d="m336.0 272.0l0 64.0l96.0 88.0l67.33072 -59.658783l108.66928 3.658783l-48.0 -144.0l-224.0 48.0" fill-rule="evenodd"/><path stroke="#a61c00" stroke-width="4.0" stroke-linejoin="round" stroke-linecap="butt" d="m336.0 272.0l0 64.0l96.0 88.0l67.33072 -59.658783l108.66928 3.658783l-48.0 -144.0l-224.0 48.0" fill-rule="evenodd"/><path fill="#a61c00" d="m560.0 88.0l176.0 104.0l-128.0 176.0l-48.0 -144.0z" fill-rule="evenodd"/><path stroke="#a61c00" stroke-width="4.0" stroke-linejoin="round" stroke-linecap="butt" d="m560.0 88.0l176.0 104.0l-128.0 176.0l-48.0 -144.0z" fill-rule="evenodd"/><path fill="#a61c00" d="m736.0 192.0l-64.0 88.0l184.0 88.0l-16.0 112.0l112.0 64.0l0 -232.0z" fill-rule="evenodd"/><path stroke="#a61c00" stroke-width="4.0" stroke-linejoin="round" stroke-linecap="butt" d="m736.0 192.0l-64.0 88.0l184.0 88.0l-16.0 112.0l112.0 64.0l0 -232.0z" fill-rule="evenodd"/><path fill="#eeeeee" d="m672.0 280.0l100.0 48.0l-156.0 208.0l-184.0 -112.0l71.26248 -58.34909l104.73752 2.3490906z" fill-rule="evenodd"/><path stroke="#eeeeee" stroke-width="4.0" stroke-linejoin="round" stroke-linecap="butt" d="m672.0 280.0l100.0 48.0l-156.0 208.0l-184.0 -112.0l71.26248 -58.34909l104.73752 2.3490906z" fill-rule="evenodd"/><path fill="#eeeeee" d="m772.50134 328.0l83.49866 40.0l-16.0 112.0l-96.0 168.0l-176.0 -48.0l204.0 -272.0" fill-rule="evenodd"/><path stroke="#eeeeee" stroke-width="4.0" stroke-linejoin="round" stroke-linecap="butt" d="m772.50134 328.0l83.49866 40.0l-16.0 112.0l-96.0 168.0l-176.0 -48.0l204.0 -272.0" fill-rule="evenodd"/><path fill="#374492" d="m840.0 480.0l112.0 64.0l0 296.0l-112.0 -48.0l-96.0 -144.0z" fill-rule="evenodd"/><path stroke="#374492" stroke-width="4.0" stroke-linejoin="round" stroke-linecap="butt" d="m840.0 480.0l112.0 64.0l0 296.0l-112.0 -48.0l-96.0 -144.0z" fill-rule="evenodd"/><path fill="#374492" d="m950.0 840.0l-214.0 120.0l-72.0 -104.0l0 -96.0l153.24933 -2.2493286l22.750671 34.24933z" fill-rule="evenodd"/><path stroke="#374492" stroke-width="4.0" stroke-linejoin="round" stroke-linecap="butt" d="m950.0 840.0l-214.0 120.0l-72.0 -104.0l0 -96.0l153.24933 -2.2493286l22.750671 34.24933z" fill-rule="evenodd"/><path fill="#eeeeee" d="m48.0 432.0l96.0 24.0l0 120.0l240.0 24.0l0 112.0l-240.0 -72.0l-96.0 56.0z" fill-rule="evenodd"/><path stroke="#eeeeee" stroke-width="4.0" stroke-linejoin="round" stroke-linecap="butt" d="m48.0 432.0l96.0 24.0l0 120.0l240.0 24.0l0 112.0l-240.0 -72.0l-96.0 56.0z" fill-rule="evenodd"/><path fill="#eeeeee" d="m240.0 408.0l-96.0 48.0l0 120.0l240.0 24.0l48.0 -176.0l-83.38583 42.566925z" fill-rule="evenodd"/><path stroke="#eeeeee" stroke-width="4.0" stroke-linejoin="round" stroke-linecap="butt" d="m240.0 408.0l-96.0 48.0l0 120.0l240.0 24.0l48.0 -176.0l-83.38583 42.566925z" fill-rule="evenodd"/><path fill="#eeeeee" d="m432.0 424.0l184.0 112.0l-48.0 64.0l-72.0 136.0l-112.0 -24.0l0 -112.0z" fill-rule="evenodd"/><path stroke="#eeeeee" stroke-width="4.0" stroke-linejoin="round" stroke-linecap="butt" d="m432.0 424.0l184.0 112.0l-48.0 64.0l-72.0 136.0l-112.0 -24.0l0 -112.0z" fill-rule="evenodd"/><path fill="#eeeeee" d="m568.0 600.0l176.0 48.0l73.50134 110.0l-153.50134 2.0l-168.0 -24.0z" fill-rule="evenodd"/><path stroke="#eeeeee" stroke-width="4.0" stroke-linejoin="round" stroke-linecap="butt" d="m568.0 600.0l176.0 48.0l73.50134 110.0l-153.50134 2.0l-168.0 -24.0z" fill-rule="evenodd"/><path fill="#eeeeee" d="m248.0 672.0l-104.0 -32.0l-96.0 56.0l0 144.0l48.0 24.0l48.0 -48.0l24.0 -96.0z" fill-rule="evenodd"/><path stroke="#eeeeee" stroke-width="4.0" stroke-linejoin="round" stroke-linecap="butt" d="m248.0 672.0l-104.0 -32.0l-96.0 56.0l0 144.0l48.0 24.0l48.0 -48.0l24.0 -96.0z" fill-rule="evenodd"/><path fill="#eeeeee" d="m168.0 720.0l80.0 -48.0l136.0 40.0l72.0 16.0l-8.0 72.0z" fill-rule="evenodd"/><path stroke="#eeeeee" stroke-width="4.0" stroke-linejoin="round" stroke-linecap="butt" d="m168.0 720.0l80.0 -48.0l136.0 40.0l72.0 16.0l-8.0 72.0z" fill-rule="evenodd"/><path fill="#eeeeee" d="m456.0 728.0l40.0 8.0l93.0 13.501343l-37.0 138.49866l-80.0 72.0l-102.27823 -80.84253l78.27823 -79.15747z" fill-rule="evenodd"/><path stroke="#eeeeee" stroke-width="4.0" stroke-linejoin="round" stroke-linecap="butt" d="m456.0 728.0l40.0 8.0l93.0 13.501343l-37.0 138.49866l-80.0 72.0l-102.27823 -80.84253l78.27823 -79.15747z" fill-rule="evenodd"/><path fill="#374492" d="m588.50134 750.0l75.49866 10.0l0 96.0l72.0 104.0l-152.0 88.0l-66.49866 -127.49866l34.498657 -32.501343z" fill-rule="evenodd"/><path stroke="#374492" stroke-width="4.0" stroke-linejoin="round" stroke-linecap="butt" d="m588.50134 750.0l75.49866 10.0l0 96.0l72.0 104.0l-152.0 88.0l-66.49866 -127.49866l34.498657 -32.501343z" fill-rule="evenodd"/><path fill="#374492" d="m516.50134 919.0l67.49866 129.0l-88.0 48.0l-192.0 -112.0l68.356964 -102.20471l99.643036 78.20471z" fill-rule="evenodd"/><path stroke="#374492" stroke-width="4.0" stroke-linejoin="round" stroke-linecap="butt" d="m516.50134 919.0l67.49866 129.0l-88.0 48.0l-192.0 -112.0l68.356964 -102.20471l99.643036 78.20471z" fill-rule="evenodd"/><path fill="#374492" d="m168.0 720.0l280.0 80.0l-64.0 64.0l-80.0 120.0l-208.0 -120.0l48.0 -48.0z" fill-rule="evenodd"/><path stroke="#374492" stroke-width="4.0" stroke-linejoin="round" stroke-linecap="butt" d="m168.0 720.0l280.0 80.0l-64.0 64.0l-80.0 120.0l-208.0 -120.0l48.0 -48.0z" fill-rule="evenodd"/><path fill="#000000" fill-opacity="0.0" d="m37.0 427.0l106.0 28.0l97.0 -49.0l108.61417 54.013123l83.38583 -37.013123l69.95276 -59.968506l106.04724 1.9685059l61.0 -86.0l189.0 88.0l-17.0 112.0l123.0 69.0" fill-rule="evenodd"/><path stroke="#333333" stroke-width="8.0" stroke-linejoin="round" stroke-linecap="butt" d="m37.0 427.0l106.0 28.0l97.0 -49.0l108.61417 54.013123l83.38583 -37.013123l69.95276 -59.968506l106.04724 1.9685059l61.0 -86.0l189.0 88.0l-17.0 112.0l123.0 69.0" fill-rule="evenodd"/><path fill="#000000" fill-opacity="0.0" d="m91.0 868.0l51.0 -50.0l25.0 -101.0l75.456696 23.477661l149.40683 41.939636l53.136475 21.582703l-73.0 76.0l98.0 79.0l80.0 -73.0l36.0 -139.0l89.0 16.0l145.0 -6.0l-75.0 -110.0l97.0 -168.0" fill-rule="evenodd"/><path stroke="#333333" stroke-width="8.0" stroke-linejoin="round" stroke-linecap="butt" d="m91.0 868.0l51.0 -50.0l25.0 -101.0l75.456696 23.477661l149.40683 41.939636l53.136475 21.582703l-73.0 76.0l98.0 79.0l80.0 -73.0l36.0 -139.0l89.0 16.0l145.0 -6.0l-75.0 -110.0l97.0 -168.0" fill-rule="evenodd"/><g filter="url(#shadowFilter-g111e9a16aab_0_0.1)"><use xlink:href="#g111e9a16aab_0_0.1" transform="matrix(1.0 0.0 0.0 1.0 -0.4186876640419863 7.989036220472503)"/></g><defs><filter id="shadowFilter-g111e9a16aab_0_0.1" filterUnits="userSpaceOnUse"><feGaussianBlur in="SourceAlpha" stdDeviation="36.5" result="blur"/><feComponentTransfer in="blur" color-interpolation-filters="sRGB"><feFuncR type="linear" slope="0" intercept="1.0"/><feFuncG type="linear" slope="0" intercept="1.0"/><feFuncB type="linear" slope="0" intercept="1.0"/><feFuncA type="linear" slope="0.32" intercept="0"/></feComponentTransfer></filter></defs><g id="g111e9a16aab_0_0.1"><path fill="#000000" d="m117.145454 345.2558l0 205.88599l61.588387 15.137451c9.660919 -9.071106 19.995865 -15.676025 31.004807 -19.814697c11.0651245 -4.1954346 23.506378 -6.293152 37.323746 -6.293091c17.917648 0 31.369888 3.7418213 40.356827 11.225464c8.986877 7.4837036 13.480347 17.150085 13.480347 28.999268c0 10.771912 -4.661957 20.183167 -13.98587 28.233826c-9.323914 7.9939575 -23.478271 11.990906 -42.46312 11.990906c-16.56961 0 -32.633713 -2.8630981 -48.192276 -8.589233c-15.502411 -5.782837 -29.291702 -14.258667 -41.367844 -25.42749l-48.61354 62.760803c16.232605 15.987854 35.807205 28.432312 58.7238 37.333313c22.972778 8.901001 49.793076 13.3515625 80.46088 13.3515625c22.46727 0 42.659714 -2.863037 60.577347 -8.589233c17.973816 -5.782837 33.335815 -14.060242 46.085968 -24.832153c12.750183 -10.828674 22.495361 -23.811707 29.235535 -38.949097c6.7401733 -15.137451 10.11026 -32.11743 10.11026 -50.940002c0 -17.405212 -3.033081 -33.16626 -9.099243 -47.283203c-6.0099792 -14.116943 -14.210541 -26.051117 -24.601654 -35.80258c-10.33493 -9.751465 -22.242584 -17.235107 -35.72293 -22.45102c-13.424194 -5.272583 -27.381989 -7.9088745 -41.873352 -7.9088745c-15.502411 0 -29.656784 2.6362915 -42.463135 7.9088745c-12.750153 5.215912 -23.253616 11.820801 -31.51033 19.814728l0 -67.35303l161.42726 0l0 -78.40848z" fill-rule="evenodd"/><path fill="#000000" d="m566.44965 419.41217c20.726074 0 35.554443 8.986084 44.48517 26.958221c8.986938 17.915466 13.480408 42.37915 13.480408 73.39102c0 31.01184 -4.493469 55.58893 -13.480408 73.7312c-8.930725 18.08551 -23.759094 27.128296 -44.48517 27.128296c-20.726013 0 -35.58252 -9.042786 -44.569397 -27.128296c-8.930725 -18.142273 -13.396118 -42.71936 -13.396118 -73.7312c0 -31.011902 4.465393 -55.475555 13.396118 -73.39102c8.986877 -17.972137 23.843384 -26.958221 44.569397 -26.958221zm0 -79.3439c-25.219482 0 -47.153137 5.045807 -65.800964 15.137421c-18.591675 10.091614 -33.925568 23.499847 -46.00171 40.22473c-12.076172 16.724884 -21.147308 35.887604 -27.21347 57.48819c-6.01001 21.600616 -9.015015 43.88153 -9.014984 66.842804c0 23.017944 3.0049744 45.32721 9.014984 66.92786c6.066162 21.543884 15.137299 40.763306 27.21347 57.658264c12.076141 16.894958 27.410034 30.416565 46.00171 40.56488c18.647827 10.091614 40.581482 15.137451 65.800964 15.137451c25.16333 0 47.06891 -5.0458374 65.716736 -15.137451c18.647827 -10.148315 34.009827 -23.669922 46.086 -40.56488c12.076111 -16.894958 21.119202 -36.11438 27.129211 -57.658264c6.066162 -21.600647 9.099243 -43.909912 9.099243 -66.92786c0 -22.961273 -3.033081 -45.242188 -9.099243 -66.842804c-6.01001 -21.600586 -15.05304 -40.763306 -27.129211 -57.48819c-12.076172 -16.724884 -27.43811 -30.133118 -46.086 -40.22473c-18.647827 -10.091614 -40.553406 -15.137421 -65.716736 -15.137421z" fill-rule="evenodd"/></g><path fill="#ffffff" d="m506.61942 1034.2242c1.3453674 -0.7767334 2.714203 -1.0742188 4.106537 -0.8925781c1.3950195 0.17150879 2.4837646 0.9349365 3.2661743 2.290039c0.8048706 1.394165 0.9346924 2.741333 0.38946533 4.041748c-0.5425415 1.2901611 -1.4865112 2.3236084 -2.8318787 3.1003418l-8.072144 4.6604004l-4.9303284 -8.539551zm-23.446014 1.579834l23.011932 39.857788l10.196442 -5.886963l-7.7268066 -13.383179l5.223755 -3.0158691l14.369873 9.5477295l11.693115 -6.7508545l-16.523376 -9.977417c0.7241821 -0.8417969 1.3759766 -1.8535156 1.9553833 -3.0352783c0.5820923 -1.1920166 0.9689331 -2.4916992 1.1605225 -3.89917c0.18786621 -1.4139404 0.13116455 -2.9243164 -0.17010498 -4.531372c-0.29486084 -1.6107178 -0.94763184 -3.291504 -1.958435 -5.0422363c-1.0594482 -1.8349609 -2.3591309 -3.380005 -3.8990479 -4.6348877c-1.5437012 -1.2615356 -3.2457275 -2.1505737 -5.10614 -2.6672974c-1.857666 -0.52685547 -3.846161 -0.64105225 -5.9654236 -0.34259033c-2.1230469 0.29205322 -4.2724304 1.0661011 -6.448181 2.3222656z" fill-rule="evenodd"/><path fill="#ffffff" d="m522.38696 1013.1642l23.011963 39.857788l29.005737 -16.746338l-5.177429 -8.967529l-18.809265 10.859497l-3.8970947 -6.75l18.394104 -10.619751l-5.171814 -8.957825l-18.394104 10.619812l-3.5882568 -6.215027l18.809326 -10.859497l-5.177368 -8.967468z" fill-rule="evenodd"/><path fill="#ffffff" d="m579.17236 992.336c1.8217163 -1.0517578 3.5758667 -1.692749 5.262512 -1.9230347c1.6865845 -0.23022461 3.2719727 -0.10809326 4.7561646 0.36639404c1.4804077 0.4680786 2.8291016 1.2282715 4.0460815 2.2807007c1.2132568 1.0458984 2.269104 2.3469849 3.1675415 3.9031372c0.8498535 1.4719238 1.4124756 3.0187988 1.6879883 4.640686c0.27557373 1.6218872 0.23486328 3.201538 -0.12200928 4.7390137c-0.354187 1.5272217 -1.0413818 2.9830933 -2.0616455 4.3674927c-1.0202637 1.3843994 -2.399414 2.5783691 -4.137451 3.581787l-6.411377 3.7015991l-12.6571045 -21.92273zm-21.84314 0.65441895l23.011902 39.857727l16.665771 -9.621887c3.083374 -1.7801514 5.664673 -3.880005 7.7438965 -6.2994385c2.0818481 -2.4296265 3.5725098 -5.0582275 4.471924 -7.885803c0.89941406 -2.8276367 1.1758423 -5.7753906 0.8293457 -8.843323c-0.34649658 -3.0679321 -1.4163818 -6.154846 -3.2095337 -9.260742c-1.7932129 -3.105835 -3.9316406 -5.5758667 -6.415283 -7.409912c-2.4836426 -1.8340454 -5.1690674 -3.0587769 -8.056335 -3.6742554c-2.887268 -0.6154175 -5.9016113 -0.6258545 -9.042908 -0.031188965c-3.1386108 0.5844116 -6.268982 1.777832 -9.390991 3.5803223z" fill-rule="evenodd"/><path fill="#ffffff" d="m600.45825 968.09l23.011902 39.857727l10.196411 -5.886841l-23.011902 -39.857788z" fill-rule="evenodd"/><path fill="#ffffff" d="m631.61304 949.31177c-2.5297852 1.4605713 -4.570984 3.105957 -6.123535 4.936035c-1.5563354 1.8236084 -2.6740112 3.7008667 -3.3529663 5.631775c-0.6790161 1.9309082 -0.9225464 3.8654175 -0.73046875 5.803528c0.19470215 1.9278564 0.7749634 3.7282715 1.7408447 5.401184c1.4711914 2.5482788 3.2096558 4.280884 5.215332 5.197815c2.001892 0.9104614 4.098999 1.3466187 6.291382 1.3085327c2.1886597 -0.044555664 4.3846436 -0.3959961 6.5880127 -1.0543213c2.199646 -0.6647339 4.2402954 -1.2852783 6.1219482 -1.8615723c1.8779297 -0.5827637 3.4977417 -0.97332764 4.859497 -1.1716309c1.3579712 -0.20477295 2.3027954 0.15319824 2.8344116 1.0739136c0.55029297 0.95318604 0.50946045 2.0271606 -0.12243652 3.2219849c-0.62927246 1.1846313 -1.8322144 2.289795 -3.6088257 3.3155518c-2.72937 1.5757446 -5.462097 2.461853 -8.198181 2.6582642c-2.736145 0.19641113 -5.229187 -0.011230469 -7.479126 -0.62286377l-0.9501343 10.819397c3.1192017 0.7495117 6.426819 0.888855 9.922791 0.4180298c3.4987183 -0.4810791 7.2628784 -1.8848877 11.2925415 -4.211426c2.6520996 -1.5311279 4.821472 -3.2072144 6.5079956 -5.0282593c1.68927 -1.8311768 2.8927612 -3.7233887 3.6103516 -5.6765747c0.71765137 -1.9532471 0.9628296 -3.9665527 0.7355957 -6.039917c-0.22076416 -2.0771484 -0.90582275 -4.111023 -2.0551147 -6.1016235c-1.4262695 -2.470459 -3.1347656 -4.151184 -5.1254883 -5.0421753c-1.9943848 -0.897522 -4.0859375 -1.3239746 -6.274536 -1.2793579c-2.1923828 0.038085938 -4.3843384 0.37420654 -6.5759277 1.0083618c-2.1952515 0.62768555 -4.2318726 1.2329102 -6.1098022 1.8156738c-1.8816528 0.57629395 -3.5014648 0.9668579 -4.859497 1.1716309c-1.3617554 0.19830322 -2.2840576 -0.12072754 -2.7669678 -0.95721436c-0.4829712 -0.8364258 -0.54504395 -1.71698 -0.1862793 -2.6416626c0.36517334 -0.92840576 1.2976685 -1.8256226 2.7975464 -2.6915283c1.982605 -1.1447144 4.187561 -1.9638062 6.614746 -2.4573975c2.423462 -0.50006104 4.871277 -0.53430176 7.343384 -0.1027832l1.3261108 -10.56958c-6.4054565 -1.2384033 -12.833191 0.004333496 -19.283203 3.7282104z" fill-rule="evenodd"/><path fill="#ffffff" d="m650.4638 939.2194l5.177368 8.967529l11.094421 -6.4053345l17.834534 30.890259l10.206116 -5.892456l-17.834534 -30.890259l11.036438 -6.371826l-5.177368 -8.967529z" fill-rule="evenodd"/><path fill="#ffffff" d="m711.11145 916.1614c1.3453369 -0.7767334 2.7142334 -1.0742798 4.1065674 -0.8925171c1.3950195 0.17150879 2.4837646 0.93481445 3.2661743 2.290039c0.8048706 1.394043 0.9346924 2.741272 0.38946533 4.041687c-0.5425415 1.2901611 -1.4865112 2.3236084 -2.8319092 3.1003418l-8.072144 4.6604614l-4.930298 -8.539551zm-23.445984 1.579773l23.011902 39.857788l10.196411 -5.886841l-7.7267456 -13.383179l5.223694 -3.0159302l14.369934 9.547791l11.693054 -6.7509766l-16.523315 -9.977417c0.7241821 -0.84173584 1.3759766 -1.8534546 1.9553833 -3.0352173c0.58203125 -1.1919556 0.9688721 -2.4916992 1.1605225 -3.899109c0.18786621 -1.4139404 0.13110352 -2.9244385 -0.17016602 -4.531433c-0.2947998 -1.6107788 -0.94763184 -3.291504 -1.958374 -5.0421753c-1.0594482 -1.835022 -2.3591309 -3.380005 -3.899109 -4.63501c-1.5436401 -1.2614746 -3.2456665 -2.1505737 -5.106079 -2.6672363c-1.857666 -0.52685547 -3.8461914 -0.64105225 -5.965454 -0.34259033c-2.1230469 0.29205322 -4.2724 1.0661011 -6.448181 2.3222656z" fill-rule="evenodd"/><path fill="#ffffff" d="m726.879 895.1013l23.011963 39.857788l10.196411 -5.886902l-23.011963 -39.857727z" fill-rule="evenodd"/><path fill="#ffffff" d="m763.2183 873.23914c-3.0447998 1.7578735 -5.5856323 3.890564 -7.6226196 6.3980103c-2.0305176 2.503662 -3.480835 5.217102 -4.350891 8.140137c-0.8737793 2.916565 -1.1246338 5.953308 -0.75250244 9.110168c0.37213135 3.1568604 1.4435425 6.268799 3.2142944 9.335815c1.7706909 3.0669556 3.9299927 5.5507812 6.4779053 7.451538c2.5478516 1.9006958 5.3050537 3.2050781 8.271545 3.913147c2.9664307 0.7080078 6.041504 0.8087158 9.225037 0.30212402c3.1862183 -0.51678467 6.301758 -1.6541748 9.346497 -3.4120483c2.3688965 -1.3676758 4.300049 -2.90625 5.793518 -4.6157227c1.489685 -1.7160034 2.644226 -3.4848633 3.463501 -5.3065796c0.81555176 -1.828186 1.348938 -3.6619873 1.6000366 -5.501526c0.2538452 -1.8497314 0.33062744 -3.597229 0.23040771 -5.2424927l-11.201294 0.8907471c0.14501953 0.97961426 0.13323975 1.9849854 -0.035339355 3.0160522c-0.17230225 1.0245361 -0.47973633 2.0233154 -0.92211914 2.996338c-0.43603516 0.9692993 -1.0056152 1.8557739 -1.7088623 2.6594849c-0.6968384 0.7999878 -1.5183716 1.4731445 -2.4645996 2.0194702c-1.6221924 0.93652344 -3.2781372 1.4949341 -4.9678955 1.6751099c-1.6898193 0.18023682 -3.329834 0.03778076 -4.920105 -0.42736816c-1.5838623 -0.46881104 -3.0453491 -1.2460327 -4.3845215 -2.331665c-1.3391724 -1.0856323 -2.4804688 -2.4454346 -3.4238281 -4.0794067c-0.9434204 -1.6340332 -1.550415 -3.3023071 -1.8209839 -5.004822c-0.27056885 -1.7025757 -0.21105957 -3.3536377 0.17858887 -4.953186c0.39233398 -1.6098022 1.0889893 -3.1013794 2.0899658 -4.4746094c0.9971924 -1.3797607 2.3068848 -2.5379639 3.929016 -3.4744873c0.94628906 -0.5463257 1.9400024 -0.9212036 2.9812012 -1.1246338c1.0476685 -0.20721436 2.1002197 -0.25726318 3.1576538 -0.15020752c1.0638428 0.103393555 2.0844116 0.33984375 3.0616455 0.7093506c0.9734497 0.3630371 1.8481445 0.8522339 2.6240234 1.4677124l6.3720703 -9.255249c-1.435852 -0.9260254 -3.0066528 -1.7438965 -4.7124023 -2.4536133c-1.703064 -0.71990967 -3.5482788 -1.180481 -5.5355835 -1.3818359c-1.9910278 -0.2078247 -4.0945435 -0.08270264 -6.310486 0.3753662c-2.2197266 0.45159912 -4.514038 1.361206 -6.8828735 2.7288818z" fill-rule="evenodd"/><path fill="#ffffff" d="m782.99506 862.70294l5.177368 8.967468l11.094421 -6.4052734l17.834534 30.890259l10.206116 -5.892456l-17.834534 -30.890259l11.036438 -6.371887l-5.177368 -8.967529z" fill-rule="evenodd"/><path fill="#ffffff" d="m820.1967 841.2247l23.011902 39.857788l10.196472 -5.886902l-23.011963 -39.857788z" fill-rule="evenodd"/><path fill="#ffffff" d="m837.5195 831.2234l23.011963 39.857788l10.196411 -5.886902l-13.319702 -23.070435l30.05304 13.409485l9.848816 -5.686157l-23.011902 -39.857788l-10.264038 5.9259033l12.662781 21.932495l-28.68158 -12.684082z" fill-rule="evenodd"/><path fill="#ffffff" d="m900.4362 794.0168c-2.9675293 1.7133179 -5.4713745 3.798645 -7.5114746 6.2559814c-2.0374146 2.4472046 -3.5064087 5.128174 -4.4070435 8.042908c-0.9042969 2.9082642 -1.182251 5.964966 -0.83374023 9.170105c0.34472656 3.1986084 1.4249268 6.3703613 3.2405396 9.515137c1.8418579 3.1901855 4.0560303 5.7244873 6.642517 7.6029053c2.5865479 1.878418 5.3670654 3.156311 8.341614 3.8337402c2.9708252 0.6709595 6.0270996 0.7392578 9.168884 0.20489502c3.1444702 -0.54455566 6.2005005 -1.6734619 9.16803 -3.3867798c3.7528076 -2.166687 6.668762 -4.779541 8.747681 -7.838623c2.0854492 -3.0628052 3.5060425 -6.4074097 4.2617188 -10.033936l-9.141846 -15.8341675l-19.098999 11.026733l5.2111206 9.025879l8.892883 -5.1342773l1.7913208 3.1026611c-0.3637085 1.00531 -1.0740967 2.145996 -2.1311646 3.421997c-1.0571289 1.276062 -2.3162842 2.3358765 -3.7775269 3.1795044c-1.6221313 0.93652344 -3.2781372 1.4949341 -4.9678955 1.6751099c-1.6897583 0.18023682 -3.329834 0.03778076 -4.920105 -0.42736816c-1.5838623 -0.46881104 -3.0453491 -1.2460327 -4.3845215 -2.331665c-1.3391724 -1.0856323 -2.4804077 -2.4454346 -3.4238281 -4.0794067c-0.9433594 -1.6340332 -1.550354 -3.302246 -1.8209839 -5.004822c-0.27056885 -1.7025757 -0.21105957 -3.3536377 0.17858887 -4.953186c0.39233398 -1.6098022 1.0889893 -3.1013184 2.0899658 -4.4746094c0.9971924 -1.3797607 2.3068848 -2.5379639 3.9290771 -3.4744873c1.937561 -1.1186523 3.9267578 -1.5755005 5.9677124 -1.3705444c2.0408936 0.20495605 3.815979 0.7449341 5.3253174 1.6199341l5.962219 -9.407654c-1.3909302 -0.84820557 -2.9401245 -1.5618286 -4.647644 -2.140808c-1.7011108 -0.5827637 -3.5019531 -0.9219971 -5.402588 -1.0177612c-1.9043579 -0.10223389 -3.9034424 0.092285156 -5.9971924 0.5835571c-2.0874023 0.48754883 -4.2382812 1.3706055 -6.4526367 2.6490479z" fill-rule="evenodd"/><path fill="#ffffff" d="m890.49646 750.64014c-6.1035156E-5 2.9211426 0.40423584 5.5115356 1.2128296 7.771118c0.80114746 2.2596436 1.868042 4.1661987 3.2007446 5.7196655c1.3327026 1.5535278 2.8862915 2.7316284 4.6607666 3.5343628c1.7669678 0.7953491 3.616272 1.1929932 5.5479736 1.1929932c2.9424438 0 5.312134 -0.6392212 7.10907 -1.9176636c1.7894287 -1.2785034 3.2157593 -2.876587 4.2789917 -4.7942505c1.0556641 -1.9177246 1.8493652 -3.9952393 2.3809204 -6.232544c0.5241699 -2.2373047 1.0070801 -4.3148193 1.4488525 -6.232544c0.43426514 -1.9177246 0.9059448 -3.515808 1.4151001 -4.7942505c0.50164795 -1.2784424 1.2840576 -1.9177246 2.347229 -1.9177246c1.100647 0 2.010315 0.5723877 2.729065 1.717041c0.7113037 1.137207 1.0668945 2.7316284 1.0668945 4.783081c0 3.1515503 -0.598999 5.9612427 -1.7969971 8.428955c-1.197937 2.4677734 -2.6242676 4.5230103 -4.2789307 6.1656494l8.894714 6.232544c2.2087402 -2.326477 3.9832153 -5.121277 5.3234253 -8.384338c1.3327637 -3.2705078 1.9991455 -7.2323 1.9992065 -11.885315c0 -3.062378 -0.36688232 -5.779114 -1.1005859 -8.150269c-0.74121094 -2.37854 -1.7781982 -4.3668213 -3.1109009 -5.964905c-1.3327026 -1.5980835 -2.9536133 -2.8171387 -4.862854 -3.6570435c-1.9092407 -0.8473511 -4.0131226 -1.2709961 -6.3117065 -1.2709961c-2.8526 0 -5.1624146 0.6392212 -6.9293823 1.9176636c-1.7744751 1.2785034 -3.1895752 2.876587 -4.2453003 4.7942505c-1.0631714 1.9177246 -1.868042 3.9840698 -2.4146118 6.1990967c-0.55407715 2.2150269 -1.0482788 4.281372 -1.482544 6.1990967c-0.44177246 1.9177246 -0.91345215 3.515808 -1.4151001 4.7942505c-0.5091553 1.2784424 -1.2466431 1.9177246 -2.2124634 1.9177246c-0.96588135 0 -1.7595215 -0.38653564 -2.3809204 -1.1595459c-0.62145996 -0.78045654 -0.9321289 -2.036621 -0.9321289 -3.7685547c0 -2.2893066 0.39312744 -4.6083984 1.1792603 -6.9572144c0.7786865 -2.348816 1.9729004 -4.485779 3.5827026 -6.4109497l-8.4904175 -6.4331665c-4.2752075 4.9280396 -6.412842 11.115967 -6.412903 18.563782z" fill-rule="evenodd"/><path fill="#ffffff" d="m891.1817 725.49524l46.02368 0l1.2207031E-4 -11.773804l-46.02368 0z" fill-rule="evenodd"/><path fill="#ffffff" d="m891.1819 705.4926l46.02368 0l6.1035156E-5 -11.773804l-29.941223 0l29.941345 -11.517334l0 -5.206787l-29.941101 -11.57312l29.941223 0l6.1035156E-5 -11.784912l-46.02368 0l-1.2207031E-4 16.378479l24.977173 9.588501l-24.977295 9.521606z" fill-rule="evenodd"/><path fill="#ffffff" d="m891.1823 645.4163l27.391846 0c2.8526 0 5.465637 -0.4310913 7.8391113 -1.293335c2.3659668 -0.8696289 4.4136963 -2.192749 6.1432495 -3.9691772c1.7220459 -1.7839355 3.06604 -4.0324097 4.0319214 -6.7454224c0.9658203 -2.720459 1.4487915 -5.9315186 1.4487915 -9.633118c6.1035156E-5 -3.6569824 -0.48284912 -6.8308716 -1.4486694 -9.521606c-0.9658203 -2.6981812 -2.3097534 -4.935486 -4.0317993 -6.711975c-1.7295532 -1.7838745 -3.7885132 -3.1069336 -6.17688 -3.9691772c-2.395874 -0.86968994 -5.0201416 -1.3045044 -7.8727417 -1.3045044l-27.324463 0l-1.2207031E-4 11.918762l26.976318 0c2.7627563 0 5.0201416 0.81018066 6.772156 2.430542c1.7444458 1.6204224 2.6166992 4.0064087 2.6166992 7.157959c-6.1035156E-5 3.2407837 -0.87231445 5.6602173 -2.6168213 7.258301c-1.7520142 1.5980835 -4.0093994 2.3970947 -6.772217 2.3970947l-26.976257 0z" fill-rule="evenodd"/><path fill="#ffffff" d="m891.18274 594.0398l46.02368 0l2.4414062E-4 -30.136963l-10.354797 0l-1.2207031E-4 18.36316l-35.668945 0z" fill-rule="evenodd"/><path fill="#ffffff" d="m902.9081 538.0788l17.329102 -5.8199463l-6.1035156E-5 11.639954l-17.32904 -5.8200073zm-11.724976 7.39209l46.02356 17.203552l6.1035156E-5 -13.356995l-6.6260986 -2.2633057l1.2207031E-4 -18.017517l6.6261597 -2.2633057l1.2207031E-4 -13.357056l-46.023804 17.259338zm1.8310547E-4 -28.558594l10.354797 0l6.1035156E-5 -12.810669l35.668945 0l1.2207031E-4 -11.784973l-35.668945 0l1.2207031E-4 -12.743774l-10.354797 0z" fill-rule="evenodd"/><path fill="#ffffff" d="m891.18365 473.95563l46.02368 0l6.1035156E-5 -11.773804l-46.02368 0z" fill-rule="evenodd"/><path fill="#ffffff" d="m900.9098 431.83255c0 -1.8731079 0.34820557 -3.5752563 1.0444946 -5.1064453c0.6888428 -1.531189 1.6322632 -2.8319397 2.8302002 -3.9023132c1.1904907 -1.070343 2.5905762 -1.902832 4.2003174 -2.497467c1.6097412 -0.594635 3.3580322 -0.89193726 5.244812 -0.89193726c1.8867188 0 3.6350098 0.29730225 5.244751 0.89193726c1.6097412 0.594635 3.0135498 1.427124 4.211487 2.497467c1.197937 1.0703735 2.1413574 2.3711243 2.8301392 3.9023132c0.6888428 1.531189 1.0332031 3.2333374 1.0332031 5.1064453c0 1.9176941 -0.3444214 3.6421509 -1.0332642 5.17334c-0.6888428 1.531189 -1.6322632 2.8319397 -2.8302002 3.9022827c-1.197937 1.070343 -2.6018066 1.9028625 -4.211548 2.497467c-1.6097412 0.594635 -3.3580322 0.8919678 -5.244751 0.8919678c-1.8867798 0 -3.6350708 -0.29733276 -5.244812 -0.8919678c-1.6097412 -0.5946045 -3.0098267 -1.427124 -4.2002563 -2.497467c-1.197937 -1.070343 -2.1413574 -2.3710938 -2.8301392 -3.9022827c-0.69628906 -1.531189 -1.0444336 -3.2556458 -1.0444336 -5.17334zm-10.489502 0c-6.1035156E-5 3.5157776 0.5876465 6.760254 1.7631226 9.733459c1.1754761 2.9657288 2.8114014 5.544983 4.907776 7.7377014c2.0889282 2.1852722 4.593384 3.894867 7.5133667 5.128723c2.919983 1.2338867 6.128235 1.8507996 9.624756 1.8507996c3.496521 0 6.704773 -0.61691284 9.624756 -1.8507996c2.920044 -1.2338562 5.4282837 -2.943451 7.524658 -5.128723c2.0889893 -2.1927185 3.7211914 -4.7719727 4.8966675 -7.7377014c1.1755371 -2.9732056 1.7633057 -6.217682 1.7633057 -9.733459c6.1035156E-5 -3.4711914 -0.5876465 -6.7008057 -1.7631226 -9.688873c-1.1754761 -2.9954834 -2.8076782 -5.57843 -4.8965454 -7.7488403c-2.0964355 -2.1704407 -4.6046143 -3.868866 -7.524597 -5.095276c-2.919983 -1.2338867 -6.128235 -1.8508301 -9.624756 -1.8508301c-3.496521 0 -6.704773 0.61694336 -9.624756 1.8508301c-2.920044 1.2264099 -5.4244995 2.9248352 -7.5134277 5.095276c-2.0964355 2.1704102 -3.7324219 4.7533875 -4.907898 7.7488403c-1.1755371 2.9880676 -1.7633057 6.217682 -1.7633057 9.688873z" fill-rule="evenodd"/><path fill="#ffffff" d="m891.1842 401.4804l46.02368 0l6.1035156E-5 -11.773773l-26.639343 0l26.639526 -19.321991l6.1035156E-5 -11.372406l-46.02368 0l-6.1035156E-5 11.851837l25.325378 0l-25.325562 18.496918z" fill-rule="evenodd"/><path fill="#ffffff" d="m890.49963 334.4215c0 2.9211426 0.40423584 5.5115356 1.2128296 7.7711487c0.80114746 2.259613 1.868042 4.166168 3.2007446 5.7196655c1.3327026 1.5534973 2.8862915 2.7316284 4.6607666 3.5343628c1.7669678 0.7953491 3.616272 1.1929932 5.5479736 1.1929932c2.9424438 0 5.312134 -0.6392212 7.10907 -1.9176941c1.7894897 -1.2784729 3.2157593 -2.8765564 4.2789917 -4.7942505c1.0557251 -1.9176941 1.8493652 -3.9952393 2.3809814 -6.232544c0.5241089 -2.2373047 1.007019 -4.3148193 1.4487915 -6.2325134c0.43426514 -1.9177246 0.90600586 -3.515808 1.4151001 -4.794281c0.50164795 -1.2784424 1.2840576 -1.9176941 2.34729 -1.9176941c1.1005859 0 2.010254 0.5723572 2.729065 1.7170105c0.7112427 1.1372375 1.0668945 2.7316284 1.0668335 4.7831116c0 3.1515808 -0.598999 5.961212 -1.796936 8.428986c-1.197998 2.467743 -2.6243286 4.522949 -4.2789917 6.165619l8.894714 6.232544c2.2087402 -2.3265076 3.9832153 -5.1213074 5.3234253 -8.384369c1.3327637 -3.2705078 1.9991455 -7.2323 1.9992065 -11.885315c0 -3.0623474 -0.3668213 -5.779114 -1.1005859 -8.150238c-0.74121094 -2.37854 -1.7781372 -4.366852 -3.1108398 -5.9649353c-1.3327026 -1.5980835 -2.9536743 -2.8171082 -4.862915 -3.657013c-1.9092407 -0.8473511 -4.0131226 -1.2710266 -6.3117065 -1.2710266c-2.8526 0 -5.1624146 0.6392212 -6.9293823 1.9176941c-1.7744751 1.2784729 -3.1895752 2.8765564 -4.2452393 4.7942505c-1.0632324 1.9176941 -1.868103 3.9840698 -2.4146729 6.1990967c-0.55407715 2.2149963 -1.0482178 4.281372 -1.482544 6.199066c-0.44171143 1.9177246 -0.91345215 3.515808 -1.4151001 4.7942505c-0.50909424 1.2784729 -1.2466431 1.9177246 -2.2124634 1.9177246c-0.9658203 0 -1.7594604 -0.38650513 -2.3809204 -1.1595459c-0.6213989 -0.78045654 -0.9321289 -2.036621 -0.9321289 -3.7685242c6.1035156E-5 -2.2893372 0.39312744 -4.608429 1.1793213 -6.957245c0.7786865 -2.3487854 1.9729004 -4.4857483 3.5826416 -6.410919l-8.4904175 -6.433197c-4.2752075 4.9280396 -6.412842 11.115967 -6.412903 18.563782z" fill-rule="evenodd"/><path fill="#ffffff" d="m214.63902 862.6029l-13.594894 23.546997l6.0587463 5.8063965c1.7061615 -0.39819336 3.3267212 -0.4697876 4.861679 -0.21466064c1.5451355 0.25231934 3.1094666 0.8355713 4.692993 1.7498169c2.0534515 1.1856079 3.348053 2.503662 3.8838348 3.9541626c0.53578186 1.4505615 0.41246033 2.8533936 -0.36994934 4.208618c-0.71128845 1.2319336 -1.8669891 1.9998169 -3.4671478 2.30365c-1.5964203 0.29730225 -3.4824982 -0.1821289 -5.6582336 -1.4382935c-1.8989563 -1.0963745 -3.5509186 -2.4866943 -4.955887 -4.1710815c-1.3947906 -1.6871338 -2.4154358 -3.5689087 -3.0619202 -5.6453247l-9.715485 3.9613037c0.80462646 2.902588 2.2262268 5.6210327 4.2648315 8.155334c2.0450287 2.538086 4.824875 4.8217163 8.339539 6.850891c2.5748444 1.4866333 5.0780487 2.4952393 7.5095825 3.025879c2.4417114 0.5279541 4.748825 0.5977173 6.921341 0.20935059c2.1762543 -0.3947754 4.1503754 -1.2348633 5.9223785 -2.5201416c1.7719879 -1.2852783 3.2794342 -3.0042725 4.5223083 -5.1569824c1.1492767 -1.9906006 1.8424072 -3.9938965 2.0793457 -6.0098267c0.24339294 -2.012207 0.09161377 -3.9196777 -0.45536804 -5.722534c-0.54052734 -1.7990723 -1.4110413 -3.442871 -2.6115265 -4.9313965c-1.1903229 -1.4912109 -2.61586 -2.7163086 -4.276642 -3.675171c-1.7766418 -1.0257568 -3.5728607 -1.6607666 -5.388687 -1.9050903c-1.8056335 -0.24713135 -3.4454956 -0.18670654 -4.9196014 0.18121338l4.447403 -7.703125l18.500244 10.681213l5.177414 -8.967529z" fill-rule="evenodd"/><path fill="#ffffff" d="m261.2346 900.8133c2.3752747 1.3713989 3.4813232 3.38031 3.3180847 6.0266724c-0.15304565 2.6436157 -1.253418 5.7388306 -3.301178 9.285645c-2.04776 3.546814 -4.1855774 6.0603027 -6.4134674 7.5405884c-2.2177124 1.4775391 -4.514206 1.5305786 -6.889496 0.15917969c-2.3753052 -1.3713989 -3.4808044 -3.3886108 -3.3165436 -6.0516357c0.17445374 -2.6658936 1.285553 -5.772156 3.333313 -9.31897c2.0477448 -3.546814 4.1748657 -6.0492554 6.3813477 -7.507324c2.2166443 -1.4608154 4.5126343 -1.5054932 6.8879395 -0.13415527zm5.2391663 -9.074463c-2.8902588 -1.6687012 -5.7371216 -2.5429077 -8.540619 -2.6226196c-2.797058 -0.07598877 -5.439743 0.4428711 -7.9280853 1.5566406c-2.4883423 1.1137695 -4.793274 2.7052002 -6.914795 4.774231c-2.1150818 2.072815 -3.9307098 4.422241 -5.446869 7.048279c-1.5198975 2.6325684 -2.6486206 5.3828735 -3.3861694 8.250977c-0.72735596 2.8653564 -0.95684814 5.6636963 -0.6884613 8.3949585c0.26838684 2.7313232 1.1328735 5.2923584 2.5934448 7.6832275c1.4707642 2.3880005 3.6512604 4.416382 6.5415344 6.085083c2.8838196 1.664978 5.727478 2.5373535 8.53096 2.6170654c2.8072357 0.07318115 5.460617 -0.4567871 7.96019 -1.5900269c2.4995728 -1.1331787 4.8050537 -2.7329712 6.916382 -4.7992554c2.121521 -2.0690308 3.9422302 -4.419861 5.4621277 -7.052429c1.5161743 -2.6260376 2.639801 -5.375 3.3709106 -8.246826c0.7375183 -2.868103 0.9664917 -5.658081 0.68688965 -8.369934c-0.27963257 -2.711853 -1.1548157 -5.26178 -2.6255798 -7.6498413c-1.4707642 -2.3880615 -3.6480408 -4.414551 -6.5318604 -6.079529z" fill-rule="evenodd"/><path fill="#ffffff" d="m273.9951 925.55804l-4.447418 7.703125l14.242126 8.222778l4.4473877 -7.703125z" fill-rule="evenodd"/><path fill="#ffffff" d="m320.51703 922.9409c-2.5297852 -1.4605713 -4.975281 -2.4056396 -7.3364563 -2.835144c-2.3574524 -0.43603516 -4.5420227 -0.46533203 -6.5537415 -0.087890625c-2.0117188 0.37738037 -3.8088074 1.1337891 -5.391266 2.269165c-1.5722351 1.1325684 -2.8413086 2.5352783 -3.8071594 4.208191c-1.4712219 2.5482788 -2.102478 4.920105 -1.8937683 7.1155396c0.21246338 2.1889038 0.88327026 4.2232056 2.0124512 6.102783c1.1329346 1.8731079 2.5352783 3.5991821 4.207062 5.1782227c1.6755371 1.5725708 3.2332458 3.029541 4.673126 4.3709717c1.4436646 1.3348999 2.5917969 2.5424805 3.444397 3.6226196c0.85635376 1.0736694 1.0187683 2.0708618 0.4871521 2.9916382c-0.55029297 0.953125 -1.5007935 1.454773 -2.8515015 1.5049438c-1.3405151 0.04736328 -2.899109 -0.4418335 -4.6757507 -1.4675903c-2.7293396 -1.5758057 -4.8630676 -3.4993896 -6.4012146 -5.770691c-1.538147 -2.2713623 -2.6048584 -4.5341797 -3.2001038 -6.788513l-9.84494 4.586853c0.9104614 3.0760498 2.443573 6.010193 4.599365 8.802368c2.1659546 2.7894287 5.2637634 5.347412 9.293396 7.67395c2.6520996 1.531189 5.1882935 2.5718384 7.608612 3.1219482c2.430481 0.5473633 4.6708984 0.64349365 6.7212524 0.28833008c2.0503235 -0.35510254 3.916504 -1.1494141 5.5985107 -2.3828735c1.688446 -1.2297974 3.1073303 -2.8399658 4.2566223 -4.8305664c1.4263 -2.470459 2.0276184 -4.7904053 1.8039246 -6.9599c-0.21994019 -2.1759644 -0.8963928 -4.2005005 -2.0293274 -6.0736084c-1.1291809 -1.8796387 -2.5162659 -3.6098633 -4.1612244 -5.190674c-1.6412354 -1.5873413 -3.1836853 -3.048523 -4.6273193 -4.383423c-1.4399109 -1.3414307 -2.5880432 -2.5489502 -3.444397 -3.6226196c-0.8526306 -1.0802002 -1.0374756 -2.0384521 -0.5545349 -2.874939c0.48291016 -0.8364258 1.2144775 -1.3305054 2.194641 -1.4821777c0.9866333 -0.14794922 2.2298584 0.21105957 3.7297058 1.0770264c1.9826355 1.1446533 3.794464 2.6445923 5.4355164 4.499878c1.6447754 1.8487549 2.898346 3.951416 3.7606812 6.3081055l9.816589 -4.1363525c-2.1302185 -6.166443 -6.4203186 -11.111633 -12.8703 -14.835571z" fill-rule="evenodd"/><path fill="#ffffff" d="m383.42438 973.59064l-3.6243286 17.91742l-10.080505 -5.8200073l13.704834 -12.097412zm-44.74176 -39.370667l-5.1773987 8.967468l11.09436 6.4053955l-17.834534 30.890259l10.206024 5.892517l17.834534 -30.890259l11.036438 6.371887l5.1773987 -8.967468zm44.202545 25.520508l-37.910645 31.25592l11.567505 6.678528l5.2731934 -4.6067505l15.603546 9.008789l-1.3529968 6.870117l11.567505 6.678528l8.064941 -48.487488zm24.73236 14.279297l-5.1773987 8.967529l11.09436 6.4053955l-17.834503 30.890259l10.206024 5.892456l17.834534 -30.890259l11.036407 6.3719482l5.177429 -8.967529z" fill-rule="evenodd"/><path fill="#ffffff" d="m444.81903 995.4982l-23.011932 39.857727l29.005615 16.746582l5.1773987 -8.967529l-18.809235 -10.859619l3.8970947 -6.749878l18.394043 10.619873l5.1717834 -8.957886l-18.394043 -10.619812l3.5882568 -6.215027l18.809235 10.859558l5.1773987 -8.967468z" fill-rule="evenodd"/></g></svg>