<svg version="1.1" viewBox="0.0 0.0 997.4409448818898 1152.0" fill="none" stroke="none" stroke-linecap="square" stroke-miterlimit="10" xmlns:xlink="http://www.w3.org/1999/xlink" xmlns="http://www.w3.org/2000/svg"><clipPath id="gc7bf747a35_0_0.0"><path d="m0 0l997.4409 0l0 1152.0l-997.4409 0l0 -1152.0z" clip-rule="nonzero"/></clipPath><g clip-path="url(#gc7bf747a35_0_0.0)"><path fill="#000000" fill-opacity="0.0" d="m0 0l997.4409 0l0 1152.0l-997.4409 0z" fill-rule="evenodd"/><path fill="#ffffff" d="m498.7139 56.010498l450.7242 259.23865l0 521.5227l-450.7242 259.23865l-450.72418 -259.23865l0 -521.5227z" fill-rule="evenodd"/><path stroke="#333333" stroke-width="1.0" stroke-linejoin="round" stroke-linecap="butt" d="m498.7139 56.010498l450.7242 259.23865l0 521.5227l-450.7242 259.23865l-450.72418 -259.23865l0 -521.5227z" fill-rule="evenodd"/><path fill="#333333" d="m498.72177 0l498.9919 287.0003l0 577.9994l-498.9919 287.0003l-498.99188 -287.0003l0 -577.9994z" fill-rule="evenodd"/><path fill="#bd714c" d="m48.0 312.0l0 120.0l96.0 24.0l96.0 -48.0l-48.0 -176.0l-144.0 80.0" fill-rule="evenodd"/><path stroke="#bd714c" stroke-width="4.0" stroke-linejoin="round" stroke-linecap="butt" d="m48.0 312.0l0 120.0l96.0 24.0l96.0 -48.0l-48.0 -176.0l-144.0 80.0" fill-rule="evenodd"/><path fill="#bd714c" d="m192.0 232.0l48.0 176.0l112.0 64.0l80.0 -48.0l-96.0 -88.0l0 -120.0l32.0 -88.0z" fill-rule="evenodd"/><path stroke="#bd714c" stroke-width="4.0" stroke-linejoin="round" stroke-linecap="butt" d="m192.0 232.0l48.0 176.0l112.0 64.0l80.0 -48.0l-96.0 -88.0l0 -120.0l32.0 -88.0z" fill-rule="evenodd"/><path fill="#bd714c" d="m336.0 272.0l0 -56.0l32.0 -88.0l128.0 -72.0l64.0 32.0l0 136.0z" fill-rule="evenodd"/><path stroke="#bd714c" stroke-width="4.0" stroke-linejoin="round" stroke-linecap="butt" d="m336.0 272.0l0 -56.0l32.0 -88.0l128.0 -72.0l64.0 32.0l0 136.0z" fill-rule="evenodd"/><path fill="#bd714c" d="m336.0 272.0l0 64.0l96.0 88.0l64.0 -72.0l112.0 16.0l-48.0 -144.0l-224.0 48.0" fill-rule="evenodd"/><path stroke="#bd714c" stroke-width="4.0" stroke-linejoin="round" stroke-linecap="butt" d="m336.0 272.0l0 64.0l96.0 88.0l64.0 -72.0l112.0 16.0l-48.0 -144.0l-224.0 48.0" fill-rule="evenodd"/><path fill="#bd714c" d="m560.0 88.0l176.0 104.0l-128.0 176.0l-48.0 -144.0z" fill-rule="evenodd"/><path stroke="#bd714c" stroke-width="4.0" stroke-linejoin="round" stroke-linecap="butt" d="m560.0 88.0l176.0 104.0l-128.0 176.0l-48.0 -144.0z" fill-rule="evenodd"/><path fill="#bd714c" d="m736.0 192.0l-64.0 88.0l184.0 88.0l-16.0 112.0l112.0 64.0l0 -232.0z" fill-rule="evenodd"/><path stroke="#bd714c" stroke-width="4.0" stroke-linejoin="round" stroke-linecap="butt" d="m736.0 192.0l-64.0 88.0l184.0 88.0l-16.0 112.0l112.0 64.0l0 -232.0z" fill-rule="evenodd"/><path fill="#374869" d="m672.0 280.0l100.0 48.0l-156.0 208.0l-184.0 -112.0l64.0 -72.0l112.0 16.0z" fill-rule="evenodd"/><path stroke="#374869" stroke-width="4.0" stroke-linejoin="round" stroke-linecap="butt" d="m672.0 280.0l100.0 48.0l-156.0 208.0l-184.0 -112.0l64.0 -72.0l112.0 16.0z" fill-rule="evenodd"/><path fill="#374869" d="m772.50134 328.0l83.49866 40.0l-16.0 112.0l-96.0 168.0l-176.0 -48.0l204.0 -272.0" fill-rule="evenodd"/><path stroke="#374869" stroke-width="4.0" stroke-linejoin="round" stroke-linecap="butt" d="m772.50134 328.0l83.49866 40.0l-16.0 112.0l-96.0 168.0l-176.0 -48.0l204.0 -272.0" fill-rule="evenodd"/><path fill="#579773" d="m840.0 480.0l112.0 64.0l0 296.0l-112.0 -48.0l-96.0 -144.0z" fill-rule="evenodd"/><path stroke="#579773" stroke-width="4.0" stroke-linejoin="round" stroke-linecap="butt" d="m840.0 480.0l112.0 64.0l0 296.0l-112.0 -48.0l-96.0 -144.0z" fill-rule="evenodd"/><path fill="#579773" d="m950.0 840.0l-214.0 120.0l-72.0 -104.0l0 -96.0l153.24933 -2.2493286l22.750671 34.24933z" fill-rule="evenodd"/><path stroke="#579773" stroke-width="4.0" stroke-linejoin="round" stroke-linecap="butt" d="m950.0 840.0l-214.0 120.0l-72.0 -104.0l0 -96.0l153.24933 -2.2493286l22.750671 34.24933z" fill-rule="evenodd"/><path fill="#374869" d="m48.0 432.0l96.0 24.0l0 120.0l240.0 24.0l0 112.0l-240.0 -72.0l-96.0 56.0z" fill-rule="evenodd"/><path stroke="#374869" stroke-width="4.0" stroke-linejoin="round" stroke-linecap="butt" d="m48.0 432.0l96.0 24.0l0 120.0l240.0 24.0l0 112.0l-240.0 -72.0l-96.0 56.0z" fill-rule="evenodd"/><path fill="#374869" d="m240.0 408.0l-96.0 48.0l0 120.0l240.0 24.0l48.0 -176.0l-80.0 48.0z" fill-rule="evenodd"/><path stroke="#374869" stroke-width="4.0" stroke-linejoin="round" stroke-linecap="butt" d="m240.0 408.0l-96.0 48.0l0 120.0l240.0 24.0l48.0 -176.0l-80.0 48.0z" fill-rule="evenodd"/><path fill="#374869" d="m432.0 424.0l184.0 112.0l-48.0 64.0l-72.0 136.0l-112.0 -24.0l0 -112.0z" fill-rule="evenodd"/><path stroke="#374869" stroke-width="4.0" stroke-linejoin="round" stroke-linecap="butt" d="m432.0 424.0l184.0 112.0l-48.0 64.0l-72.0 136.0l-112.0 -24.0l0 -112.0z" fill-rule="evenodd"/><path fill="#374869" d="m568.0 600.0l176.0 48.0l73.50134 110.0l-153.50134 2.0l-168.0 -24.0z" fill-rule="evenodd"/><path stroke="#374869" stroke-width="4.0" stroke-linejoin="round" stroke-linecap="butt" d="m568.0 600.0l176.0 48.0l73.50134 110.0l-153.50134 2.0l-168.0 -24.0z" fill-rule="evenodd"/><path fill="#374869" d="m248.0 672.0l-104.0 -32.0l-96.0 56.0l0 144.0l48.0 24.0l48.0 -48.0l24.0 -96.0z" fill-rule="evenodd"/><path stroke="#374869" stroke-width="4.0" stroke-linejoin="round" stroke-linecap="butt" d="m248.0 672.0l-104.0 -32.0l-96.0 56.0l0 144.0l48.0 24.0l48.0 -48.0l24.0 -96.0z" fill-rule="evenodd"/><path fill="#579773" d="m168.0 720.0l80.0 -48.0l136.0 40.0l72.0 16.0l-8.0 72.0z" fill-rule="evenodd"/><path stroke="#579773" stroke-width="4.0" stroke-linejoin="round" stroke-linecap="butt" d="m168.0 720.0l80.0 -48.0l136.0 40.0l72.0 16.0l-8.0 72.0z" fill-rule="evenodd"/><path fill="#374869" d="m456.0 728.0l40.0 8.0l93.0 13.501343l-37.0 138.49866l-80.0 72.0l-102.27823 -80.84253l78.27823 -79.15747z" fill-rule="evenodd"/><path stroke="#374869" stroke-width="4.0" stroke-linejoin="round" stroke-linecap="butt" d="m456.0 728.0l40.0 8.0l93.0 13.501343l-37.0 138.49866l-80.0 72.0l-102.27823 -80.84253l78.27823 -79.15747z" fill-rule="evenodd"/><path fill="#579773" d="m588.50134 750.0l75.49866 10.0l0 96.0l72.0 104.0l-152.0 88.0l-66.49866 -127.49866l34.498657 -32.501343z" fill-rule="evenodd"/><path stroke="#579773" stroke-width="4.0" stroke-linejoin="round" stroke-linecap="butt" d="m588.50134 750.0l75.49866 10.0l0 96.0l72.0 104.0l-152.0 88.0l-66.49866 -127.49866l34.498657 -32.501343z" fill-rule="evenodd"/><path fill="#579773" d="m516.50134 919.0l67.49866 129.0l-88.0 48.0l-192.0 -112.0l68.356964 -102.20471l99.643036 78.20471z" fill-rule="evenodd"/><path stroke="#579773" stroke-width="4.0" stroke-linejoin="round" stroke-linecap="butt" d="m516.50134 919.0l67.49866 129.0l-88.0 48.0l-192.0 -112.0l68.356964 -102.20471l99.643036 78.20471z" fill-rule="evenodd"/><path fill="#579773" d="m168.0 720.0l280.0 80.0l-64.0 64.0l-80.0 120.0l-208.0 -120.0l48.0 -48.0z" fill-rule="evenodd"/><path stroke="#579773" stroke-width="4.0" stroke-linejoin="round" stroke-linecap="butt" d="m168.0 720.0l280.0 80.0l-64.0 64.0l-80.0 120.0l-208.0 -120.0l48.0 -48.0z" fill-rule="evenodd"/><path fill="#000000" fill-opacity="0.0" d="m37.0 427.0l106.0 28.0l97.0 -49.0l113.0 64.0l79.0 -47.0l61.0 -72.0l115.0 14.0l61.0 -86.0l189.0 88.0l-17.0 112.0l123.0 69.0" fill-rule="evenodd"/><path stroke="#333333" stroke-width="8.0" stroke-linejoin="round" stroke-linecap="butt" d="m37.0 427.0l106.0 28.0l97.0 -49.0l113.0 64.0l79.0 -47.0l61.0 -72.0l115.0 14.0l61.0 -86.0l189.0 88.0l-17.0 112.0l123.0 69.0" fill-rule="evenodd"/><path fill="#000000" fill-opacity="0.0" d="m91.0 868.0l51.0 -50.0l25.0 -101.0l76.0 -47.0l212.0 58.0l-10.0 76.0l-73.0 76.0l98.0 79.0l80.0 -73.0l36.0 -139.0l89.0 16.0l145.0 -6.0l-75.0 -110.0l97.0 -168.0" fill-rule="evenodd"/><path stroke="#333333" stroke-width="8.0" stroke-linejoin="round" stroke-linecap="butt" d="m91.0 868.0l51.0 -50.0l25.0 -101.0l76.0 -47.0l212.0 58.0l-10.0 76.0l-73.0 76.0l98.0 79.0l80.0 -73.0l36.0 -139.0l89.0 16.0l145.0 -6.0l-75.0 -110.0l97.0 -168.0" fill-rule="evenodd"/></g></svg>